# Blender v2.78 (sub 0) OBJ File: 'Balmora_Crate.blend'
# www.blender.org
mtllib Balmora_Crate.mtl
o Cube_Cube.003
v 1.000000 0.000000 -1.000000
v 1.000000 0.000000 1.000000
v 1.000000 2.000000 -1.000000
v 1.000000 2.000000 1.000000
v 1.000000 0.130997 -0.869003
v 1.000000 0.130997 0.869003
v 1.000000 1.869003 -0.869003
v 1.000000 1.869003 0.869003
v 0.947521 0.130997 -0.869003
v 0.947521 1.869003 -0.869003
v 0.905989 0.110838 -1.000000
v 0.905989 1.889162 -1.000000
v 0.890762 2.000000 -0.905014
v 0.890762 2.000000 0.905014
v 0.890762 1.938211 -0.905014
v 0.897322 0.109487 1.000000
v 0.897322 1.890513 1.000000
v 0.897322 0.109487 0.930155
v 0.897322 1.890513 0.930155
v -1.000000 0.000000 -1.000000
v -1.000000 0.000000 1.000000
v -1.000000 2.000000 -1.000000
v -1.000000 2.000000 1.000000
v 0.000000 2.000000 -1.000000
v 0.000000 0.000000 -1.000000
v 0.000000 2.000000 1.000000
v 0.000000 0.000000 1.000000
v -1.000000 0.130997 -0.869003
v -1.000000 0.130997 0.869003
v -1.000000 1.869003 -0.869003
v -1.000000 1.869003 0.869003
v -0.947521 0.130997 -0.869003
v -0.905989 0.110838 -1.000000
v -0.905989 1.889162 -1.000000
v 0.000000 1.889162 -1.000000
v 0.000000 0.110838 -1.000000
v -0.905989 1.889162 -0.920405
v 0.000000 1.889162 -0.920405
v 0.000000 0.110838 -0.920405
v -0.890762 2.000000 -0.905014
v -0.890762 2.000000 0.905014
v 0.000000 2.000000 -0.905014
v 0.000000 2.000000 0.905014
v -0.890762 1.938211 -0.905014
v -0.890762 1.938211 0.905014
v 0.000000 1.938211 0.905014
v -0.897322 0.109487 1.000000
v -0.897322 1.890513 1.000000
v 0.000000 1.890513 1.000000
v 0.000000 0.109487 1.000000
v -0.897322 0.109487 0.930155
v 0.000000 1.890513 0.930155
v -0.902695 0.000000 -0.856904
v -0.902695 0.000000 0.856904
v 0.000000 0.000000 -0.856904
v 0.000000 0.000000 0.856904
v 0.947521 0.130997 0.869003
v 0.947521 1.869003 0.869003
v 0.905989 0.110838 -0.920405
v 0.905989 1.889162 -0.920405
v 0.890762 1.938211 0.905014
v 0.902695 0.000000 -0.856904
v 0.902695 0.000000 0.856904
v 0.902695 0.075569 -0.856904
v 0.902695 0.075569 0.856904
v -0.947521 0.130997 0.869003
v -0.947521 1.869003 -0.869003
v -0.947521 1.869003 0.869003
v -0.905989 0.110838 -0.920405
v 0.000000 1.938211 -0.905014
v -0.897322 1.890513 0.930155
v 0.000000 0.109487 0.930155
v -0.902695 0.075569 -0.856904
v -0.902695 0.075569 0.856904
v 0.000000 0.075569 -0.856904
v 0.000000 0.075569 0.856904
vt 0.2655 0.3983
vt 0.2508 0.2780
vt 0.2655 0.2655
vt 0.2481 0.0174
vt 0.2655 0.0000
vt 0.2655 0.1328
vt 0.2800 0.2519
vt 0.2655 0.2655
vt 0.5310 0.6638
vt 0.5436 0.5455
vt 0.5436 0.6638
vt 0.0174 0.0174
vt 0.0000 0.0000
vt 0.0174 0.2481
vt 0.0000 0.2655
vt 0.2481 0.2481
vt 0.9105 0.7618
vt 0.9036 0.5310
vt 0.9105 0.5310
vt 0.0147 0.2780
vt 0.0000 0.3983
vt 0.0147 0.3983
vt 0.7965 0.5310
vt 0.5310 0.5310
vt 0.7965 0.6638
vt 0.7839 0.5455
vt 0.8557 0.6501
vt 0.8465 0.5310
vt 0.8557 0.5310
vt 0.5310 0.1328
vt 0.5165 0.2519
vt 0.5165 0.1328
vt 0.5310 0.2655
vt 0.7675 0.2364
vt 0.5310 0.2457
vt 0.5310 0.2364
vt 0.2508 0.5185
vt 0.2655 0.5310
vt 0.5136 0.2829
vt 0.2655 0.2655
vt 0.5310 0.2655
vt 0.2655 0.6638
vt 0.2845 0.7836
vt 0.2655 0.7965
vt 0.2800 0.0136
vt 0.2655 0.0000
vt 0.5436 0.7820
vt 0.5310 0.7965
vt 0.5136 0.5136
vt 0.5310 0.5310
vt 0.2829 0.5136
vt 0.2655 0.5310
vt 0.0147 0.5185
vt 0.0000 0.5310
vt 0.2655 0.6513
vt 0.2549 0.7716
vt 0.2549 0.6513
vt 0.8896 0.6493
vt 0.8814 0.7675
vt 0.8814 0.6493
vt 0.7965 0.7965
vt 0.7839 0.7820
vt 0.8732 0.7713
vt 0.8814 0.5310
vt 0.8814 0.7713
vt 0.5165 0.0136
vt 0.5310 0.0000
vt 0.5120 0.7836
vt 0.5310 0.6638
vt 0.5310 0.7965
vt 0.9946 0.3862
vt 0.7671 0.2664
vt 0.7671 0.3862
vt 0.8171 0.7585
vt 0.8272 0.5310
vt 0.8171 0.5310
vt 0.7671 0.5061
vt 0.2845 0.5439
vt 0.2845 0.6638
vt 0.7618 0.7965
vt 0.5310 0.8035
vt 0.5310 0.7965
vt 0.9175 0.7618
vt 0.9105 0.5310
vt 0.9175 0.5310
vt 0.4962 0.7965
vt 0.2655 0.8035
vt 0.2655 0.7965
vt 0.2509 0.6513
vt 0.2403 0.5310
vt 0.2509 0.5310
vt 0.5310 0.5166
vt 0.7671 0.5061
vt 0.7671 0.5166
vt 0.2549 0.5310
vt 0.8814 0.5310
vt 0.8732 0.7713
vt 0.8650 0.5310
vt 0.8732 0.5310
vt 0.6493 0.2539
vt 0.7675 0.2457
vt 0.7675 0.2539
vt 0.8372 0.5310
vt 0.8465 0.6501
vt 0.8372 0.6501
vt 0.5120 0.5439
vt 0.5310 0.5310
vt 0.2655 0.5310
vt 0.5310 0.8035
vt 0.7618 0.8105
vt 0.5310 0.8105
vt 0.8896 0.7618
vt 0.8966 0.5310
vt 0.8966 0.7618
vt 0.5310 0.2585
vt 0.7618 0.2655
vt 0.5310 0.2655
vt 0.9036 0.5310
vt 0.8966 0.7618
vt 0.8966 0.5310
vt 0.2403 0.7716
vt 0.2509 0.7716
vt 0.7965 0.7671
vt 0.8071 0.5310
vt 0.8071 0.7671
vt 0.5310 0.2457
vt 0.5310 0.2539
vt 0.8465 0.7693
vt 0.8557 0.7693
vt 0.8372 0.7693
vt 0.8650 0.5310
vt 0.8557 0.7675
vt 0.8557 0.5310
vt 0.7693 0.2364
vt 1.0000 0.0057
vt 1.0000 0.2364
vt 0.5310 0.2655
vt 0.7671 0.3858
vt 0.5310 0.3858
vt 0.2403 0.5310
vt 0.0000 0.6493
vt 0.0000 0.5310
vt 0.6501 0.2364
vt 0.7693 0.0000
vt 0.7693 0.2364
vt 0.8071 0.6509
vt 0.8171 0.6509
vt 0.6509 0.5210
vt 0.7707 0.5310
vt 0.7707 0.5210
vt 0.0000 0.9983
vt 0.2307 0.7675
vt 0.2307 0.9983
vt 0.5310 0.5061
vt 0.2403 0.7675
vt 0.0000 0.7675
vt 0.5310 0.0000
vt 0.5310 0.2364
vt 0.8171 0.7707
vt 0.5310 0.5310
vt 0.5310 0.5210
vt 0.8372 0.7585
vt 0.8272 0.5310
vt 0.8272 0.7585
vt 0.2508 0.3983
vt 0.2800 0.1328
vt 0.9036 0.7618
vt 0.7839 0.6638
vt 0.8465 0.6501
vt 0.7675 0.2457
vt 0.2829 0.2829
vt 0.2655 0.7716
vt 0.8896 0.7675
vt 0.8732 0.5310
vt 0.5120 0.6638
vt 0.9946 0.2664
vt 0.8272 0.7585
vt 0.9946 0.5061
vt 0.7618 0.8035
vt 0.9105 0.7618
vt 0.4962 0.8035
vt 0.2403 0.6513
vt 0.5310 0.5061
vt 0.2655 0.5310
vt 0.8896 0.5310
vt 0.8650 0.7713
vt 0.6493 0.2457
vt 0.8465 0.5310
vt 0.7618 0.8035
vt 0.8896 0.5310
vt 0.7618 0.2585
vt 0.9036 0.7618
vt 0.7965 0.5310
vt 0.8465 0.7693
vt 0.8650 0.7675
vt 0.7693 0.0057
vt 0.7671 0.2655
vt 0.2403 0.6493
vt 0.6501 0.0000
vt 0.8071 0.5310
vt 0.6509 0.5310
vt 0.0000 0.7675
vt 0.7671 0.5061
vt 0.8071 0.7707
vt 0.8372 0.5310
vn 0.0000 0.0000 -1.0000
vn 1.0000 0.0000 0.0000
vn 0.0000 0.0000 1.0000
vn 0.0000 1.0000 0.0000
vn 0.0000 -1.0000 0.0000
vn -1.0000 0.0000 0.0000
usemtl Crate
s off
f 25/1/1 11/2/1 1/3/1
f 1/3/2 6/4/2 2/5/2
f 26/6/3 17/7/3 4/8/3
f 26/9/4 14/10/4 43/11/4
f 2/5/2 8/12/2 4/13/2
f 4/13/2 7/14/2 3/15/2
f 1/3/2 7/14/2 5/16/2
f 7/17/3 9/18/3 5/19/3
f 1/3/1 12/20/1 3/15/1
f 24/21/1 12/20/1 35/22/1
f 3/23/4 14/10/4 4/24/4
f 24/25/4 13/26/4 3/23/4
f 49/27/5 19/28/5 17/29/5
f 27/30/3 16/31/3 50/32/3
f 4/8/3 16/31/3 2/33/3
f 17/34/6 18/35/6 16/36/6
f 33/37/1 25/1/1 20/38/1
f 29/39/6 20/40/6 21/41/6
f 25/42/5 53/43/5 20/44/5
f 48/45/3 26/6/3 23/46/3
f 26/9/4 41/47/4 23/48/4
f 31/49/6 21/41/6 23/50/6
f 30/51/6 23/50/6 22/52/6
f 20/40/6 30/51/6 22/52/6
f 34/53/1 20/38/1 22/54/1
f 24/21/1 34/53/1 22/54/1
f 38/55/5 34/56/5 35/57/5
f 46/58/1 41/59/1 43/60/1
f 41/47/4 22/61/4 23/48/4
f 40/62/4 24/25/4 22/61/4
f 45/63/2 40/64/2 41/65/2
f 27/30/3 47/66/3 21/67/3
f 47/66/3 23/46/3 21/67/3
f 54/68/5 27/69/5 21/70/5
f 53/43/5 21/70/5 20/44/5
f 75/71/5 65/72/5 76/73/5
f 63/74/6 64/75/6 62/76/6
f 74/77/5 75/71/5 76/73/5
f 25/42/5 62/78/5 55/79/5
f 5/80/4 57/81/4 6/82/4
f 6/83/1 58/84/1 8/85/1
f 8/86/5 10/87/5 7/88/5
f 36/89/4 59/90/4 11/91/4
f 11/92/6 60/93/6 12/94/6
f 12/95/5 38/55/5 35/57/5
f 14/96/1 46/58/1 43/60/1
f 13/97/6 61/98/6 14/99/6
f 42/100/3 15/101/3 13/102/3
f 16/103/4 72/104/4 50/105/4
f 27/69/5 63/106/5 2/107/5
f 2/107/5 62/78/5 1/108/5
f 66/109/4 28/110/4 29/111/4
f 68/112/1 29/113/1 31/114/1
f 67/115/5 31/116/5 30/117/5
f 32/118/3 30/119/3 28/120/3
f 69/121/4 36/89/4 33/122/4
f 37/123/2 33/124/2 34/125/2
f 44/126/3 42/100/3 40/127/3
f 71/128/5 49/27/5 48/129/5
f 72/104/4 47/130/4 50/105/4
f 51/131/2 48/132/2 47/133/2
f 58/134/2 9/135/2 10/136/2
f 60/137/1 39/138/1 38/139/1
f 15/140/4 46/141/4 61/142/4
f 52/143/3 18/144/3 19/145/3
f 62/76/3 75/146/3 55/147/3
f 56/148/1 65/149/1 63/150/1
f 32/151/6 68/152/6 67/153/6
f 39/138/1 37/154/1 38/139/1
f 46/141/4 44/155/4 45/156/4
f 51/157/3 52/143/3 71/158/3
f 75/146/3 53/159/3 55/147/3
f 74/160/1 56/148/1 54/161/1
f 73/162/2 54/163/2 53/164/2
f 25/1/1 36/165/1 11/2/1
f 1/3/2 5/16/2 6/4/2
f 26/6/3 49/166/3 17/7/3
f 26/9/4 4/24/4 14/10/4
f 2/5/2 6/4/2 8/12/2
f 4/13/2 8/12/2 7/14/2
f 1/3/2 3/15/2 7/14/2
f 7/17/3 10/167/3 9/18/3
f 1/3/1 11/2/1 12/20/1
f 24/21/1 3/15/1 12/20/1
f 3/23/4 13/26/4 14/10/4
f 24/25/4 42/168/4 13/26/4
f 49/27/5 52/169/5 19/28/5
f 27/30/3 2/33/3 16/31/3
f 4/8/3 17/7/3 16/31/3
f 17/34/6 19/170/6 18/35/6
f 33/37/1 36/165/1 25/1/1
f 29/39/6 28/171/6 20/40/6
f 25/42/5 55/79/5 53/43/5
f 48/45/3 49/166/3 26/6/3
f 26/9/4 43/11/4 41/47/4
f 31/49/6 29/39/6 21/41/6
f 30/51/6 31/49/6 23/50/6
f 20/40/6 28/171/6 30/51/6
f 34/53/1 33/37/1 20/38/1
f 24/21/1 35/22/1 34/53/1
f 38/55/5 37/172/5 34/56/5
f 46/58/1 45/173/1 41/59/1
f 41/47/4 40/62/4 22/61/4
f 40/62/4 42/168/4 24/25/4
f 45/63/2 44/174/2 40/64/2
f 27/30/3 50/32/3 47/66/3
f 47/66/3 48/45/3 23/46/3
f 54/68/5 56/175/5 27/69/5
f 53/43/5 54/68/5 21/70/5
f 75/71/5 64/176/5 65/72/5
f 63/74/6 65/177/6 64/75/6
f 74/77/5 73/178/5 75/71/5
f 25/42/5 1/108/5 62/78/5
f 5/80/4 9/179/4 57/81/4
f 6/83/1 57/180/1 58/84/1
f 8/86/5 58/181/5 10/87/5
f 36/89/4 39/182/4 59/90/4
f 11/92/6 59/183/6 60/93/6
f 12/95/5 60/184/5 38/55/5
f 14/96/1 61/185/1 46/58/1
f 13/97/6 15/186/6 61/98/6
f 42/100/3 70/187/3 15/101/3
f 16/103/4 18/188/4 72/104/4
f 27/69/5 56/175/5 63/106/5
f 2/107/5 63/106/5 62/78/5
f 66/109/4 32/189/4 28/110/4
f 68/112/1 66/190/1 29/113/1
f 67/115/5 68/191/5 31/116/5
f 32/118/3 67/192/3 30/119/3
f 69/121/4 39/182/4 36/89/4
f 37/123/2 69/193/2 33/124/2
f 44/126/3 70/187/3 42/100/3
f 71/128/5 52/169/5 49/27/5
f 72/104/4 51/194/4 47/130/4
f 51/131/2 71/195/2 48/132/2
f 58/134/2 57/196/2 9/135/2
f 60/137/1 59/197/1 39/138/1
f 15/140/4 70/198/4 46/141/4
f 52/143/3 72/199/3 18/144/3
f 62/76/3 64/200/3 75/146/3
f 56/148/1 76/201/1 65/149/1
f 32/151/6 66/202/6 68/152/6
f 39/138/1 69/203/1 37/154/1
f 46/141/4 70/198/4 44/155/4
f 51/157/3 72/199/3 52/143/3
f 75/146/3 73/204/3 53/159/3
f 74/160/1 76/201/1 56/148/1
f 73/162/2 74/205/2 54/163/2
