# 3ds Max Wavefront OBJ Exporter v0.97b - (c)2007 guruware
# File Created: 13.12.2017 18:05:49

mtllib AreneMur.mtl

#
# object Bordure
#

v  -365.8441 17.5718 -17.8405
v  -362.2243 53.9338 0.2366
v  -365.8551 17.5718 0.2366
v  -362.2243 53.9338 -17.8405
v  -252.6241 -189.0413 -17.8405
v  -231.0257 -196.7293 -17.8405
v  -239.7307 -157.2614 -17.8405
v  -230.1836 232.0696 -17.8405
v  -253.4334 223.7474 -17.8405
v  -240.5727 192.0768 -17.8405
v  252.1360 223.7474 -17.8405
v  228.8971 232.0696 -17.8405
v  239.2753 192.0768 -17.8405
v  229.7282 -196.7293 -17.8405
v  251.3267 -189.0413 -17.8405
v  238.4442 -157.2614 -17.8405
v  -334.0861 121.0041 -17.8405
v  -310.6722 149.0876 -17.8405
v  -334.0861 121.0259 0.2366
v  -310.6722 149.0985 0.2366
v  -219.6850 -164.4026 0.2366
v  -209.7224 -167.9568 -17.8405
v  -219.6850 -164.4026 -17.8405
v  -209.7005 -167.9568 0.2366
v  -351.4962 88.8742 -17.8405
v  -351.4962 88.8742 0.2366
v  -230.1945 232.0696 16.8593
v  -253.4334 223.7474 16.8593
v  -252.6241 -189.0413 16.8593
v  -248.1076 -177.9413 13.3707
v  -246.4672 -173.8841 9.8712
v  -244.8159 -169.8378 6.3607
v  -243.1864 -165.7915 3.7470
v  -241.5351 -161.7342 0.2366
v  -239.7307 -157.2614 0.2366
v  -351.4962 -53.7416 -17.8405
v  -334.0861 -85.8715 0.2366
v  -334.0970 -85.8824 -17.8405
v  -351.4962 -53.7526 0.2366
v  -85.4352 230.5714 -4.1269
v  -127.4074 223.9333 -17.8405
v  -85.4680 230.5168 -17.8405
v  -127.4402 223.9990 -4.1269
v  -249.6933 -153.7182 0.2366
v  -249.7042 -153.7182 -17.8405
v  -227.0778 -185.4653 16.8593
v  -227.0778 -185.4653 13.3707
v  -231.0257 -196.7293 16.8593
v  -225.6123 -181.3205 9.8712
v  -224.1688 -177.1977 6.3607
v  -222.7253 -173.0639 3.7470
v  -221.2926 -168.9410 0.2366
v  -310.6832 -113.9441 0.2366
v  -282.2169 -136.8549 -17.8405
v  -310.6394 -114.0206 -17.8405
v  -282.2169 -136.8440 0.2366
v  -249.7371 188.8289 0.2366
v  -282.1841 171.9875 -17.8405
v  -249.7808 188.8179 -17.8405
v  -282.1950 171.9984 0.2366
v  -240.5727 192.0768 0.2366
v  -242.3444 196.4840 0.2366
v  -244.0066 200.5304 3.7470
v  -244.0066 200.5304 6.3607
v  -245.6579 204.5876 6.3607
v  -247.2874 208.6448 9.8712
v  -248.9387 212.7021 13.3707
v  -362.2243 -18.8012 0.2366
v  -362.2243 -18.8012 -17.8405
v  -43.1240 234.5302 -4.1269
v  -43.1349 234.4647 -17.8405
v  -127.3965 -188.8882 -17.8405
v  -127.3856 -188.8882 0.2366
v  -85.4243 -195.4607 -17.8405
v  -85.4134 -195.4607 0.2366
v  -168.8766 -179.7020 -17.8405
v  -168.8656 -179.7020 0.2366
v  309.3858 -113.9441 0.2366
v  332.8106 -85.8824 -17.8405
v  309.3529 -114.0206 -17.8405
v  332.7997 -85.8715 0.2366
v  208.4030 -167.9568 0.2366
v  167.5901 -179.7020 -17.8405
v  167.5791 -179.7020 0.2366
v  208.4140 -167.9568 -17.8405
v  41.8047 -199.4305 0.2366
v  84.1269 -195.4607 -17.8405
v  41.8156 -199.4196 -17.8405
v  84.1050 -195.4607 0.2366
v  -0.6378 -200.7428 0.2366
v  -0.6487 -200.7428 -17.8405
v  41.8375 234.4647 -17.8405
v  -0.6378 235.8535 -4.1269
v  -0.6378 235.7988 -17.8405
v  41.8156 234.5302 -4.1269
v  -168.9094 214.8127 -4.1269
v  -209.7333 203.0019 -17.8405
v  -168.9203 214.7471 -17.8405
v  -209.7333 203.0894 0.2366
v  -220.4834 204.2705 0.2366
v  -218.9195 199.7758 -17.8405
v  -218.9195 199.7758 0.2366
v  -221.9269 208.4042 3.7470
v  -223.3595 212.5271 6.3607
v  -224.8140 216.6609 9.8712
v  -226.2466 220.7947 13.3707
v  -43.1240 -199.4196 -17.8405
v  -43.1131 -199.4305 0.2366
v  360.9160 53.9338 -17.8405
v  360.9378 53.9338 0.2366
v  350.1878 88.8742 -17.8405
v  350.2096 88.8742 0.2366
v  364.5467 17.5718 -17.8405
v  364.5467 17.5718 0.2366
v  218.3985 -164.4026 0.2366
v  218.3985 -164.4026 -17.8405
v  360.9160 -18.8012 -17.8405
v  360.9378 -18.8012 0.2366
v  332.7887 121.0041 -17.8405
v  332.7887 121.0259 0.2366
v  309.3748 149.0876 -17.8405
v  309.3748 149.0985 0.2366
v  229.7282 -196.7293 16.8593
v  251.3267 -189.0413 16.8593
v  280.8866 171.9875 -17.8405
v  280.8866 171.9984 0.2366
v  248.4396 188.8289 0.2366
v  248.4834 188.8179 -17.8405
v  239.2753 192.0768 0.2366
v  252.1360 223.7474 16.8593
v  247.6413 212.7021 13.3707
v  241.0579 196.4840 0.2366
v  242.7092 200.5304 3.7470
v  244.3496 204.5876 6.3607
v  246.0009 208.6448 9.8712
v  217.6112 199.7758 -17.8405
v  208.4359 203.0894 0.2366
v  208.4359 203.0019 -17.8405
v  217.6112 199.7758 0.2366
v  219.1969 204.2705 0.2366
v  219.1969 204.2705 3.7470
v  220.6295 208.4042 3.7470
v  222.0730 212.5271 6.3607
v  223.5056 216.6609 9.8712
v  224.9601 220.7947 13.3707
v  224.9601 220.7947 16.8593
v  228.9081 232.0696 16.8593
v  167.6229 214.7471 -17.8405
v  126.1428 223.9990 -4.1269
v  126.1209 223.9333 -17.8405
v  167.6120 214.8127 -4.1269
v  126.1100 -188.8882 -17.8405
v  126.0881 -188.8882 0.2366
v  84.1269 230.5714 -4.1269
v  84.1706 230.5168 -17.8405
v  350.2096 -53.7416 -17.8405
v  350.2096 -53.7526 0.2366
v  246.8211 -177.9413 16.8593
v  246.8211 -177.9413 13.3707
v  245.1698 -173.8841 9.8712
v  243.5294 -169.8378 6.3607
v  241.8780 -165.7915 3.7470
v  240.2376 -161.7342 0.2366
v  238.4442 -157.2614 0.2366
v  248.4068 -153.7182 -17.8405
v  248.4068 -153.7182 0.2366
v  225.7694 -185.4653 13.3707
v  224.3258 -181.3205 9.8712
v  222.8823 -177.1977 6.3607
v  221.4388 -173.0639 3.7470
v  219.9843 -168.9410 0.2366
v  280.9303 -136.8549 -17.8405
v  280.9085 -136.8440 0.2366
# 173 vertices

vn 1.0000 -0.0001 0.0005
vn 0.9803 -0.1973 0.0001
vn 0.9804 -0.1973 0.0000
vn 0.0000 0.0000 1.0000
vn 0.8278 -0.5610 0.0006
vn 0.7008 -0.7134 0.0005
vn 0.8277 -0.5611 0.0006
vn 0.7007 -0.7134 0.0004
vn 0.3360 0.9419 0.0000
vn 0.3062 0.9520 -0.0002
vn 0.3354 0.9421 -0.0004
vn 0.3060 0.9520 -0.0003
vn 0.9221 -0.3869 0.0000
vn 0.9221 -0.3868 0.0001
vn 0.3370 -0.9415 0.0001
vn 0.3372 -0.9415 0.0000
vn 0.9266 -0.3759 0.0000
vn 0.9261 -0.3773 -0.0014
vn 0.9274 -0.3740 0.0011
vn 0.9249 -0.3803 -0.0033
vn 0.9279 -0.3729 0.0012
vn 0.9259 -0.3778 -0.0010
vn 0.9274 -0.3741 0.0000
vn 0.9222 0.3868 0.0000
vn 0.8278 0.5610 -0.0007
vn 0.8278 0.5610 -0.0008
vn 0.9221 0.3869 0.0002
vn 0.1241 -0.9923 0.0038
vn 0.1854 -0.9826 0.0050
vn 0.1242 -0.9922 0.0038
vn 0.1855 -0.9826 0.0051
vn 0.3987 0.9171 -0.0002
vn 0.3348 0.9423 -0.0002
vn 0.3986 0.9171 -0.0003
vn 0.3351 0.9422 0.0000
vn -0.9437 0.3308 0.0000
vn -0.9436 0.3310 -0.0001
vn -0.9418 0.3362 0.0038
vn -0.9439 0.3303 -0.0003
vn -0.9443 0.3292 -0.0009
vn -0.9451 0.3267 -0.0020
vn -0.9426 0.3339 0.0000
vn 0.7009 0.7132 -0.0011
vn 0.5462 0.8376 -0.0007
vn 0.7005 0.7137 -0.0013
vn 0.5464 0.8376 -0.0005
vn 0.3983 -0.9173 -0.0002
vn 0.5462 -0.8377 0.0006
vn 0.3984 -0.9172 -0.0003
vn 0.5461 -0.8377 0.0008
vn 0.9265 0.3762 0.0000
vn 0.9278 0.3730 -0.0066
vn 0.9257 0.3782 0.0025
vn 0.9262 0.3770 0.0009
vn 0.9274 0.3740 -0.0018
vn 0.9262 0.3770 0.0000
vn 0.9262 0.3769 0.0000
vn 0.3336 -0.9427 0.0000
vn 0.3341 -0.9426 -0.0002
vn 0.9803 0.1974 0.0000
vn 0.9803 0.1973 0.0001
vn 0.3353 0.9421 0.0000
vn 0.0620 -0.9981 0.0046
vn 0.0621 -0.9981 0.0046
vn 0.1856 0.9826 -0.0001
vn 0.1855 0.9826 -0.0001
vn 0.1240 0.9923 -0.0001
vn 0.1240 0.9923 0.0000
vn 0.2464 0.9692 -0.0002
vn 0.2464 0.9692 -0.0001
vn -0.7009 0.7133 -0.0015
vn -0.8278 0.5610 -0.0009
vn -0.7005 0.7137 -0.0017
vn -0.8277 0.5611 -0.0007
vn -0.3059 0.9521 -0.0002
vn -0.2465 0.9691 -0.0001
vn -0.2465 0.9692 -0.0002
vn -0.3060 0.9520 -0.0001
vn -0.0621 0.9981 0.0005
vn -0.1241 0.9923 -0.0001
vn -0.1241 0.9923 -0.0002
vn -0.0001 1.0000 0.0001
vn -0.0622 -0.9981 0.0045
vn -0.0000 -1.0000 0.0041
vn -0.0000 -1.0000 0.0040
vn -0.0621 -0.9981 0.0047
vn 0.2474 -0.9689 0.0045
vn 0.3041 -0.9526 0.0046
vn 0.2465 -0.9691 0.0045
vn 0.3078 -0.9515 0.0030
vn -0.9445 -0.3286 0.0000
vn -0.9442 -0.3293 0.0002
vn -0.9441 -0.3296 -0.0002
vn -0.9444 -0.3287 0.0009
vn -0.9436 -0.3310 -0.0012
vn -0.9447 -0.3280 0.0007
vn -0.9438 -0.3304 -0.0003
vn 0.3313 -0.9435 0.0046
vn 0.3393 -0.9407 0.0000
vn 0.0623 0.9981 0.0005
vn -0.9803 -0.1974 0.0012
vn -0.9803 -0.1973 0.0010
vn -0.9222 -0.3868 0.0011
vn -0.9222 -0.3868 0.0010
vn -1.0000 0.0002 0.0002
vn -0.3354 0.9421 0.0000
vn -0.3350 0.9422 -0.0002
vn -0.9804 0.1969 0.0010
vn -0.8278 -0.5611 0.0008
vn -0.8277 -0.5612 0.0006
vn -0.7007 -0.7134 0.0005
vn -0.7007 -0.7135 0.0004
vn -0.3353 0.9421 0.0000
vn -0.5463 -0.8376 0.0003
vn -0.5462 -0.8377 0.0005
vn -0.3982 -0.9173 -0.0002
vn -0.3336 -0.9427 -0.0002
vn -0.3983 -0.9172 -0.0004
vn -0.3341 -0.9426 0.0000
vn -0.9262 0.3769 0.0000
vn -0.9266 0.3761 0.0002
vn -0.9270 0.3750 0.0000
vn -0.9265 0.3762 -0.0004
vn -0.9262 0.3771 0.0011
vn -0.9265 0.3764 0.0002
vn -0.9269 0.3754 -0.0010
vn -0.9266 0.3760 -0.0004
vn -0.9263 0.3768 0.0003
vn -0.9269 0.3753 -0.0007
vn -0.3317 -0.9434 0.0046
vn -0.3080 -0.9514 0.0030
vn -0.3043 -0.9526 0.0046
vn -0.3397 -0.9405 0.0000
vn 0.9440 -0.3299 0.0000
vn 0.9437 -0.3308 -0.0017
vn 0.9430 -0.3327 -0.0056
vn 0.9435 -0.3312 -0.0031
vn 0.9442 -0.3295 0.0000
vn 0.9445 -0.3286 0.0012
vn 0.9449 -0.3274 0.0029
vn 0.9445 -0.3284 0.0018
vn 0.9439 -0.3302 -0.0005
vn 0.9442 -0.3293 0.0003
vn 0.9446 -0.3284 0.0012
vn 0.9435 -0.3314 -0.0007
vn 0.9441 -0.3297 0.0000
vn 0.9438 -0.3305 -0.0003
vn -0.2465 -0.9691 0.0045
vn -0.1856 -0.9826 0.0048
vn -0.1856 -0.9826 0.0050
vn -0.2474 -0.9689 0.0044
vn -0.1855 0.9826 -0.0002
vn -0.1237 -0.9923 0.0037
vn -0.1239 -0.9923 0.0037
vn -0.3372 -0.9415 0.0000
vn -0.3373 -0.9414 0.0001
vn -0.9222 0.3867 0.0002
vn -0.9221 0.3869 0.0002
vn -0.9266 -0.3761 0.0000
vn -0.9268 -0.3757 -0.0002
vn -0.9254 -0.3790 -0.0028
vn -0.9265 -0.3764 -0.0009
vn -0.9252 -0.3794 -0.0027
vn -0.9268 -0.3756 -0.0010
vn -0.9282 -0.3722 0.0000
vn -0.3351 0.9422 0.0000
vn -0.3988 0.9170 -0.0002
vn -0.3989 0.9170 0.0000
vn 0.9437 0.3307 0.0000
vn 0.9433 0.3319 0.0012
vn 0.9450 0.3270 -0.0025
vn 0.9439 0.3303 -0.0003
vn 0.9443 0.3292 -0.0009
vn 0.9428 0.3335 0.0010
vn 0.9440 0.3298 0.0000
vn -0.5462 0.8377 -0.0013
vn -0.5462 0.8376 -0.0010
# 177 vertex normals

vt 1.4336 0.9090 0.0000
vt 1.0518 0.7646 0.0000
vt 1.4348 0.7658 0.0000
vt 1.0506 0.9079 0.0000
vt 0.9865 0.4778 0.0000
vt 0.9779 0.3352 0.0000
vt 1.4454 0.4626 0.0000
vt 3.6988 0.9752 0.0000
vt 3.7880 0.7911 0.0000
vt 4.1207 0.8941 0.0000
vt 1.9388 0.3234 0.0000
vt 1.9487 0.4769 0.0000
vt 1.4814 0.3386 0.0000
vt 0.2130 0.6669 0.0000
vt 0.2954 0.4960 0.0000
vt 0.6293 0.5991 0.0000
vt 0.3441 0.9058 0.0000
vt 0.0483 0.9050 0.0000
vt 0.3451 0.7626 0.0000
vt 0.0494 0.7617 0.0000
vt 5.8924 0.1130 0.0000
vt 5.7587 0.0005 0.0000
vt 5.8924 0.0005 0.0000
vt 5.7584 0.1130 0.0000
vt 0.6826 0.9068 0.0000
vt 0.6838 0.7636 0.0000
vt 1.9850 0.4770 0.0000
vt 2.4505 0.3234 0.0000
vt 2.4505 0.4770 0.0000
vt 1.9850 0.3234 0.0000
vt 1.6359 0.7609 0.0000
vt 1.2727 0.4880 0.0000
vt 1.6382 0.4891 0.0000
vt 1.3086 0.5831 0.0000
vt 1.3452 0.6179 0.0000
vt 1.3819 0.6526 0.0000
vt 1.4091 0.6873 0.0000
vt 1.4458 0.7221 0.0000
vt 1.4455 0.7603 0.0000
vt 2.1848 0.9112 0.0000
vt 2.5244 0.7690 0.0000
vt 2.5233 0.9122 0.0000
vt 2.1861 0.7680 0.0000
vt 1.7912 0.2026 0.0000
vt 1.2282 0.1173 0.0000
vt 1.7908 0.1173 0.0000
vt 1.2277 0.2026 0.0000
vt 0.6755 0.3260 0.0000
vt 0.5336 0.2135 0.0000
vt 0.6756 0.2135 0.0000
vt 0.5336 0.3260 0.0000
vt 0.7821 0.4834 0.0000
vt 0.7819 0.5110 0.0000
vt 0.6541 0.7580 0.0000
vt 0.6564 0.4830 0.0000
vt 1.0149 0.7591 0.0000
vt 0.8280 0.5389 0.0000
vt 0.8737 0.5668 0.0000
vt 0.9197 0.5877 0.0000
vt 0.9654 0.6156 0.0000
vt 1.0161 0.6158 0.0000
vt 1.6251 0.3260 0.0000
vt 1.1624 0.2135 0.0000
vt 1.6242 0.2135 0.0000
vt 1.1624 0.3260 0.0000
vt 2.9286 0.9189 0.0000
vt 3.3125 1.0633 0.0000
vt 2.9279 1.0622 0.0000
vt 3.3137 0.9200 0.0000
vt 5.8645 0.2341 0.0000
vt 5.4059 0.3466 0.0000
vt 5.4059 0.2341 0.0000
vt 5.4697 0.3466 0.0000
vt 5.5283 0.3684 0.0000
vt 5.5283 0.3847 0.0000
vt 5.5871 0.3847 0.0000
vt 5.6458 0.4065 0.0000
vt 5.7045 0.4283 0.0000
vt 5.8645 0.4500 0.0000
vt 2.8272 0.9186 0.0000
vt 2.8260 1.0619 0.0000
vt 1.8179 0.7669 0.0000
vt 1.8167 0.9102 0.0000
vt 3.7537 0.3493 0.0000
vt 3.2882 0.3493 0.0000
vt 3.7537 0.2066 0.0000
vt 3.2882 0.2066 0.0000
vt 2.8201 0.7698 0.0000
vt 2.8197 0.9131 0.0000
vt 2.3589 0.2026 0.0000
vt 2.3587 0.1173 0.0000
vt 4.6543 0.0005 0.0000
vt 4.6541 0.1130 0.0000
vt 4.0912 0.0005 0.0000
vt 4.0911 0.1130 0.0000
vt 5.2107 0.0005 0.0000
vt 5.2106 0.1130 0.0000
vt 2.7944 1.0618 0.0000
vt 2.5000 0.9176 0.0000
vt 2.7964 0.9185 0.0000
vt 2.4987 1.0609 0.0000
vt 0.1494 0.1130 0.0000
vt 0.6969 0.0005 0.0000
vt 0.6971 0.1130 0.0000
vt 0.1493 0.0005 0.0000
vt 2.3844 0.1130 0.0000
vt 1.8166 0.0005 0.0000
vt 2.3842 0.0005 0.0000
vt 1.8169 0.1130 0.0000
vt 2.9538 0.1130 0.0000
vt 2.9539 0.0005 0.0000
vt 3.4987 0.1173 0.0000
vt 2.9288 0.2026 0.0000
vt 2.9288 0.1173 0.0000
vt 3.4984 0.2026 0.0000
vt 0.6714 0.2026 0.0000
vt 0.1237 0.1173 0.0000
vt 0.6713 0.1173 0.0000
vt 0.1237 0.2298 0.0000
vt 1.2418 0.5263 0.0000
vt 1.0517 0.4881 0.0000
vt 1.2421 0.4886 0.0000
vt 1.0494 0.7591 0.0000
vt 1.2785 0.5612 0.0000
vt 1.3057 0.5958 0.0000
vt 1.3424 0.6307 0.0000
vt 1.3790 0.6655 0.0000
vt 1.4149 0.7602 0.0000
vt 0.0005 0.1173 0.0000
vt 0.0005 0.2298 0.0000
vt 3.6899 1.0644 0.0000
vt 3.6911 0.9211 0.0000
vt 3.5237 0.0005 0.0000
vt 3.5236 0.1130 0.0000
vt 1.0273 0.9133 0.0000
vt 1.0261 1.0566 0.0000
vt 0.6593 0.9122 0.0000
vt 0.6580 1.0555 0.0000
vt 1.4103 0.9144 0.0000
vt 1.4091 1.0577 0.0000
vt 0.0153 0.1130 0.0000
vt 0.0153 0.0005 0.0000
vt 1.7934 0.9156 0.0000
vt 1.7922 1.0588 0.0000
vt 0.3208 0.9112 0.0000
vt 0.3194 1.0545 0.0000
vt 0.0250 0.9104 0.0000
vt 0.0237 1.0536 0.0000
vt 2.7847 0.2066 0.0000
vt 3.2502 0.2066 0.0000
vt 2.7847 0.3493 0.0000
vt 3.2502 0.3493 0.0000
vt 3.3259 0.7713 0.0000
vt 3.7109 0.7725 0.0000
vt 3.3246 0.9146 0.0000
vt 3.7096 0.9157 0.0000
vt 2.9471 0.9135 0.0000
vt 2.8517 0.7699 0.0000
vt 2.9488 0.7702 0.0000
vt 2.8505 0.9132 0.0000
vt 2.0312 0.7621 0.0000
vt 1.6657 0.7610 0.0000
vt 1.9953 0.6674 0.0000
vt 1.8581 0.5283 0.0000
vt 1.6680 0.4901 0.0000
vt 1.8584 0.4906 0.0000
vt 1.8948 0.5630 0.0000
vt 1.9220 0.5978 0.0000
vt 1.9587 0.6326 0.0000
vt 5.8567 0.1173 0.0000
vt 5.7336 0.2298 0.0000
vt 5.7336 0.1173 0.0000
vt 5.8567 0.2298 0.0000
vt 5.4060 0.6080 0.0000
vt 5.8649 0.4955 0.0000
vt 5.8649 0.6080 0.0000
vt 5.8010 0.4955 0.0000
vt 5.8010 0.4737 0.0000
vt 5.7423 0.4737 0.0000
vt 5.6837 0.4574 0.0000
vt 5.6250 0.4356 0.0000
vt 5.5662 0.4138 0.0000
vt 5.5662 0.3921 0.0000
vt 5.4059 0.3921 0.0000
vt 5.1861 0.1173 0.0000
vt 4.6296 0.2026 0.0000
vt 4.6293 0.1173 0.0000
vt 5.1860 0.2026 0.0000
vt 1.2534 0.0005 0.0000
vt 1.2537 0.1130 0.0000
vt 4.0660 0.2026 0.0000
vt 4.0666 0.1173 0.0000
vt 5.8556 0.8278 0.0000
vt 5.5244 0.6119 0.0000
vt 5.8556 0.6119 0.0000
vt 5.5245 0.8278 0.0000
vt 2.1614 0.9166 0.0000
vt 2.1604 1.0599 0.0000
vt 5.2017 0.4363 0.0000
vt 5.2017 0.4146 0.0000
vt 5.3625 0.2203 0.0000
vt 5.3625 0.4363 0.0000
vt 4.9024 0.2203 0.0000
vt 5.1430 0.3928 0.0000
vt 5.0844 0.3709 0.0000
vt 5.0258 0.3547 0.0000
vt 4.9671 0.3328 0.0000
vt 4.9024 0.3328 0.0000
vt 1.6592 0.3191 0.0000
vt 1.6592 0.2066 0.0000
vt 1.8010 0.3191 0.0000
vt 1.8010 0.2066 0.0000
vt 2.2521 0.7627 0.0000
vt 1.8889 0.4901 0.0000
vt 2.2544 0.4912 0.0000
vt 1.9249 0.5849 0.0000
vt 1.9614 0.6198 0.0000
vt 1.9981 0.6545 0.0000
vt 2.0254 0.6893 0.0000
vt 2.0620 0.7240 0.0000
vt 2.0617 0.7621 0.0000
vt 2.2879 0.3191 0.0000
vt 2.7506 0.2066 0.0000
vt 2.7498 0.3191 0.0000
vt 2.2877 0.2066 0.0000
vt 1.4899 0.4816 0.0000
vt 1.4374 0.3302 0.0000
vt 0.5527 0.7577 0.0000
vt 4.0382 1.0654 0.0000
# 229 texture coords

o Bordure
g Bordure
usemtl 09___Default
s off
f 1/1/1 2/2/2 3/3/1 
f 2/2/2 1/1/1 4/4/3 
f 5/5/4 6/6/4 7/7/4 
f 8/8/4 9/9/4 10/10/4 
f 11/11/4 12/12/4 13/13/4 
f 14/14/4 15/15/4 16/16/4 
f 17/17/5 18/18/6 19/19/7 
f 20/20/8 19/19/7 18/18/6 
f 21/21/9 22/22/10 23/23/9 
f 22/22/10 21/21/11 24/24/12 
f 4/4/3 25/25/13 2/2/2 
f 26/26/14 2/2/2 25/25/13 
f 17/17/5 26/26/14 25/25/13 
f 26/26/14 17/17/5 19/19/7 
f 27/27/15 9/28/15 8/29/15 
f 27/27/16 28/30/16 9/28/16 
f 7/31/17 29/32/17 5/33/17 
f 29/32/18 7/31/18 30/34/18 
f 30/34/19 7/31/19 31/35/19 
f 31/35/20 7/31/20 32/36/20 
f 32/36/21 7/31/21 33/37/21 
f 33/37/22 7/31/22 34/38/22 
f 34/38/23 7/31/23 35/39/23 
f 36/40/24 37/41/25 38/42/26 
f 37/41/25 36/40/24 39/43/27 
f 40/44/28 41/45/29 42/46/30 
f 41/45/29 40/44/28 43/47/31 
f 44/48/32 7/49/33 45/50/34 
f 7/49/35 44/48/32 35/51/35 
f 46/52/36 47/53/36 6/54/36 
f 6/54/36 48/55/36 46/52/36 
f 6/54/37 47/53/37 23/56/37 
f 23/56/38 47/53/38 49/57/38 
f 23/56/39 49/57/39 50/58/39 
f 23/56/40 50/58/40 51/59/40 
f 23/56/41 51/59/41 52/60/41 
f 23/56/42 52/60/42 21/61/42 
f 53/62/43 54/63/44 55/64/45 
f 54/63/44 53/62/43 56/65/46 
f 57/66/47 58/67/48 59/68/49 
f 58/67/48 57/66/47 60/69/50 
f 56/65/46 45/50/34 54/63/44 
f 45/50/34 56/65/46 44/48/32 
f 9/70/51 61/71/51 10/72/51 
f 61/71/52 9/70/52 62/73/52 
f 62/73/53 9/70/53 63/74/53 
f 63/74/51 9/70/51 64/75/51 
f 64/75/54 9/70/54 65/76/54 
f 65/76/55 9/70/55 66/77/55 
f 66/77/56 9/70/56 67/78/56 
f 28/79/57 67/78/57 9/70/57 
f 61/80/58 59/68/49 10/81/58 
f 59/68/49 61/80/59 57/66/47 
f 36/40/24 68/82/60 39/43/27 
f 68/82/60 36/40/24 69/83/61 
f 5/84/62 29/85/62 6/86/62 
f 48/87/62 6/86/62 29/85/62 
f 38/42/26 53/88/43 55/89/45 
f 53/88/43 38/42/26 37/41/25 
f 70/90/63 42/46/30 71/91/64 
f 42/46/30 70/90/63 40/44/28 
f 72/92/65 73/93/66 74/94/67 
f 75/95/68 74/94/67 73/93/66 
f 76/96/69 77/97/70 72/92/65 
f 73/93/66 72/92/65 77/97/70 
f 78/98/71 79/99/72 80/100/73 
f 79/99/72 78/98/71 81/101/74 
f 82/102/75 83/103/76 84/104/77 
f 83/103/76 82/102/75 85/105/78 
f 86/106/79 87/107/80 88/108/79 
f 87/107/80 86/106/79 89/109/81 
f 90/110/82 88/108/79 91/111/82 
f 88/108/79 90/110/82 86/106/79 
f 92/112/83 93/113/84 94/114/85 
f 93/113/84 92/112/83 95/115/86 
f 96/116/87 97/117/88 98/118/89 
f 97/117/88 96/116/87 99/119/90 
f 43/47/31 98/118/89 41/45/29 
f 98/118/89 43/47/31 96/116/87 
f 100/120/91 101/121/91 102/122/91 
f 101/121/92 100/120/92 8/123/92 
f 8/123/93 100/120/93 103/124/93 
f 8/123/94 103/124/94 104/125/94 
f 8/123/95 104/125/95 105/126/95 
f 8/123/96 105/126/96 106/127/96 
f 8/123/97 106/127/97 27/128/97 
f 99/119/90 101/129/98 97/117/88 
f 101/129/99 99/119/90 102/130/99 
f 69/83/61 3/3/1 68/82/60 
f 3/3/1 69/83/61 1/1/1 
f 60/69/50 18/131/6 58/67/48 
f 18/131/6 60/69/50 20/132/8 
f 75/95/68 107/133/100 74/94/67 
f 107/133/100 75/95/68 108/134/100 
f 108/134/100 91/111/82 107/133/100 
f 91/111/82 108/134/100 90/110/82 
f 93/113/84 71/91/64 94/114/85 
f 71/91/64 93/113/84 70/90/63 
f 22/22/10 24/24/12 76/96/69 
f 77/97/70 76/96/69 24/24/12 
f 109/135/101 110/136/102 111/137/103 
f 112/138/104 111/137/103 110/136/102 
f 110/136/102 113/139/105 114/140/105 
f 113/139/105 110/136/102 109/135/101 
f 85/105/78 115/141/106 116/142/106 
f 115/141/107 85/105/78 82/102/75 
f 114/140/105 117/143/108 118/144/108 
f 117/143/108 114/140/105 113/139/105 
f 119/145/109 120/146/110 121/147/111 
f 122/148/112 121/147/111 120/146/110 
f 14/149/113 123/150/113 15/151/113 
f 124/152/113 15/151/113 123/150/113 
f 112/138/104 119/145/109 111/137/103 
f 119/145/109 112/138/104 120/146/110 
f 125/153/114 121/154/111 126/155/115 
f 122/156/112 126/155/115 121/154/111 
f 127/157/116 13/158/117 128/159/118 
f 13/158/119 127/157/116 129/160/119 
f 130/161/120 11/162/120 131/163/120 
f 132/164/121 13/165/122 129/166/122 
f 13/165/123 132/164/121 11/162/123 
f 11/162/124 132/164/121 133/167/125 
f 11/162/126 133/167/125 134/168/127 
f 11/162/128 134/168/127 135/169/128 
f 11/162/129 135/169/129 131/163/129 
f 136/170/130 137/171/131 138/172/132 
f 137/171/131 136/170/133 139/173/133 
f 12/174/134 139/175/135 136/176/134 
f 139/175/135 12/174/136 140/177/137 
f 140/177/137 12/174/138 141/178/139 
f 141/178/139 12/174/140 142/179/141 
f 142/179/141 12/174/142 143/180/143 
f 143/180/143 12/174/144 144/181/144 
f 144/181/145 12/174/145 145/182/145 
f 145/182/146 12/174/146 146/183/146 
f 146/183/147 12/174/147 147/184/147 
f 148/185/148 149/186/149 150/187/150 
f 149/186/149 148/185/148 151/188/151 
f 137/171/131 148/185/148 138/172/132 
f 148/185/148 137/171/131 151/188/151 
f 84/104/77 152/189/152 153/190/152 
f 152/189/152 84/104/77 83/103/76 
f 89/109/81 152/189/152 87/107/80 
f 152/189/152 89/109/81 153/190/152 
f 154/191/153 92/112/83 155/192/154 
f 92/112/83 154/191/153 95/115/86 
f 130/193/155 12/194/155 11/195/155 
f 12/194/156 130/193/156 147/196/156 
f 118/144/108 156/197/157 157/198/158 
f 156/197/157 118/144/108 117/143/108 
f 158/199/159 159/200/159 15/201/159 
f 15/201/159 124/202/159 158/199/159 
f 15/201/160 159/200/160 16/203/160 
f 16/203/161 159/200/161 160/204/161 
f 16/203/162 160/204/162 161/205/162 
f 16/203/163 161/205/163 162/206/163 
f 16/203/164 162/206/164 163/207/164 
f 16/203/165 163/207/165 164/208/165 
f 81/101/74 156/197/157 79/99/72 
f 156/197/157 81/101/74 157/198/158 
f 149/186/149 155/192/154 150/187/150 
f 155/192/154 149/186/149 154/191/153 
f 16/209/166 164/210/166 165/211/167 
f 166/212/168 165/211/167 164/210/166 
f 116/213/169 123/214/169 14/215/169 
f 123/214/170 116/213/170 167/216/170 
f 167/216/171 116/213/171 168/217/171 
f 168/217/172 116/213/172 169/218/172 
f 169/218/173 116/213/173 170/219/173 
f 170/219/174 116/213/174 171/220/174 
f 171/220/175 116/213/175 115/221/175 
f 172/222/176 78/223/71 80/224/73 
f 78/223/71 172/222/176 173/225/177 
f 125/153/114 127/157/116 128/159/118 
f 127/157/116 125/153/114 126/155/115 
f 165/211/167 173/225/177 172/222/176 
f 173/225/177 165/211/167 166/212/168 
f 13/13/4 12/12/4 136/226/4 
f 7/7/4 6/6/4 23/227/4 
f 14/14/4 16/16/4 116/228/4 
f 8/8/4 10/10/4 101/229/4 
# 181 faces

